<?xml version="1.0" encoding="UTF-8"?>
<svg version="1.1" xmlns="http://www.w3.org/2000/svg" width="512" height="512">
<path d="M0 0 C1.78157249 -0.01038551 1.78157249 -0.01038551 3.59913635 -0.02098083 C7.41378105 -0.03817731 11.22828711 -0.04456787 15.04296875 -0.046875 C16.98891937 -0.04888412 16.98891937 -0.04888412 18.97418213 -0.05093384 C80.5482638 -0.03711795 80.5482638 -0.03711795 97.23046875 11.203125 C97.82214844 11.59886719 98.41382813 11.99460937 99.0234375 12.40234375 C106.71937545 18.26675413 111.61734713 27.45416842 116.484375 35.6484375 C117.0520459 36.59517334 117.6197168 37.54190918 118.20458984 38.51733398 C119.332101 40.40814031 120.44362728 42.30858613 121.53759766 44.21899414 C124.50418456 49.363741 124.50418456 49.363741 129.234375 52.70703125 C130.22308594 52.87074219 131.21179688 53.03445312 132.23046875 53.203125 C144.67101953 56.67637522 156.80019054 61.07743669 163.734375 72.73046875 C166.6107173 78.3110645 168.35172106 82.86658732 168.36468983 89.17800999 C168.36914767 90.18589181 168.37360551 91.19377364 168.37819844 92.23219734 C168.3779219 93.89019141 168.3779219 93.89019141 168.37763977 95.5816803 C168.38131646 96.75748341 168.38499315 97.93328651 168.38878125 99.14472002 C168.39789971 102.40950701 168.40251595 105.67426446 168.40517056 108.939062 C168.40907752 112.46003363 168.41865565 115.98099076 168.42738342 119.50195312 C168.44713772 128.00615649 168.45721315 136.51036102 168.46611121 145.01458159 C168.47049618 149.02135858 168.47586248 153.02813425 168.48110008 157.0349102 C168.49811203 170.35809715 168.51260529 183.68128327 168.51984882 197.00447941 C168.52175866 200.46123824 168.523679 203.91799706 168.52563477 207.37475586 C168.52611851 208.23389611 168.52660225 209.09303636 168.52710065 209.97821116 C168.53539755 223.88976505 168.56072887 237.80123287 168.59321544 251.71274919 C168.62631133 266.00193747 168.64429991 280.29108205 168.64749306 294.58030885 C168.64965592 302.60050478 168.65837152 310.6205752 168.68395424 318.64073372 C168.70569591 325.47244168 168.71369471 332.30399366 168.70398746 339.1357323 C168.69945261 342.61867811 168.70128078 346.10130233 168.7207489 349.58420372 C168.73846062 353.36830044 168.73136378 357.1515866 168.71821594 360.9356842 C168.73466981 362.57025569 168.73466981 362.57025569 168.75145608 364.23784882 C168.65688201 375.54737957 165.45334767 383.82492005 157.625 391.96484375 C154.36009414 395.01670518 150.94114878 397.71585718 147.23046875 400.203125 C147.79894531 400.76 148.36742187 401.316875 148.953125 401.890625 C150.11134766 403.0353125 150.11134766 403.0353125 151.29296875 404.203125 C152.04707031 404.945625 152.80117188 405.688125 153.578125 406.453125 C156.28693144 409.26166658 158.83780817 412.16908826 161.39428711 415.11523438 C164.34387046 418.46915497 167.41238661 421.70790651 170.48046875 424.953125 C175.88283779 430.69126837 181.24306789 436.46247909 186.55859375 442.28125 C189.4192453 445.40956485 192.29156625 448.5268022 195.16796875 451.640625 C195.66707764 452.18098389 196.16618652 452.72134277 196.68041992 453.27807617 C197.69167487 454.37277392 198.70298687 455.46741896 199.71435547 456.56201172 C201.22141692 458.19332687 202.72799905 459.82508309 204.234375 461.45703125 C204.72921387 461.99303955 205.22405273 462.52904785 205.73388672 463.08129883 C206.72943708 464.16016359 207.72455632 465.23942635 208.71923828 466.3190918 C211.27089654 469.08749484 213.8309095 471.84735076 216.40625 474.59375 C233.61577703 492.99399025 233.61577703 492.99399025 233.515625 501.87890625 C233.07701005 505.45391853 231.57211483 507.5362503 229.23046875 510.203125 C226.05825386 512.21276548 223.54343134 512.46379732 219.82275391 512.49365234 C218.20054428 512.5127919 218.20054428 512.5127919 216.54556274 512.53231812 C214.80017715 512.53565659 214.80017715 512.53565659 213.01953125 512.5390625 C211.81863861 512.5457193 210.61774597 512.5523761 209.38046265 512.55923462 C206.84024589 512.56935944 204.30000254 512.57405169 201.75976562 512.57373047 C197.87715727 512.57810059 193.99568826 512.61441615 190.11328125 512.65234375 C187.64453514 512.65821251 185.17578362 512.66218151 182.70703125 512.6640625 C181.54748932 512.67843353 180.38794739 512.69280457 179.19326782 512.70761108 C171.73813951 512.66543946 167.81721323 511.67164044 162.34179688 506.37670898 C158.21645965 501.50751073 154.40918353 496.47937527 150.73046875 491.265625 C149.15348531 489.04211672 147.57364585 486.82283367 145.96291798 484.62361968 C144.84149601 483.05682287 143.75999371 481.46034036 142.72900182 479.83261335 C139.64935422 475.18982344 139.64935422 475.18982344 135.01352918 472.3647759 C132.39572633 472.03109178 129.90737812 471.98329499 127.26872253 472.03335571 C126.28157755 472.01649353 125.29443256 471.99963135 124.27737409 471.9822582 C120.97700989 471.93707281 117.68021048 471.95604327 114.37963867 471.97509766 C112.0105933 471.95634887 109.64157518 471.93383386 107.27259827 471.90783691 C100.84246153 471.84971761 94.41352721 471.84917028 87.98318648 471.8624692 C83.96461059 471.86938575 79.94621253 471.85855032 75.92766762 471.84302902 C75.25986586 471.84049503 74.59206409 471.83796104 73.90402592 471.83535027 C72.54721991 471.83018333 71.19041397 471.82500258 69.83360807 471.81980817 C57.11722332 471.77348049 44.40138161 471.78536754 31.68498109 471.81514792 C20.06473248 471.84057756 8.44609176 471.79390481 -3.17386059 471.71291907 C-15.11851846 471.63030846 -27.06242011 471.59603334 -39.0073635 471.61394155 C-45.70840942 471.62315744 -52.4079343 471.61245583 -59.10877419 471.55354691 C-65.4127149 471.50030232 -71.71348991 471.51015489 -78.01735878 471.56808472 C-80.32718966 471.57885946 -82.63724756 471.56758068 -84.94683456 471.53232956 C-97.49326477 470.82668797 -97.49326477 470.82668797 -108.28709984 476.02193832 C-110.94809658 479.14288119 -112.85584576 482.57989982 -114.76953125 486.203125 C-116.0064924 487.960982 -117.26571461 489.70376871 -118.5625 491.41796875 C-120.27236491 493.79159507 -121.97665559 496.16836821 -123.66601562 498.55664062 C-127.5525737 503.92675345 -131.72534353 509.18103114 -137.76953125 512.203125 C-139.49386385 512.31403212 -141.22239156 512.36230787 -142.95019531 512.38012695 C-144.03181946 512.39296219 -145.1134436 512.40579742 -146.22784424 512.41902161 C-147.98871368 512.43010201 -147.98871368 512.43010201 -149.78515625 512.44140625 C-150.98887878 512.449478 -152.19260132 512.45754974 -153.43280029 512.46586609 C-155.98497065 512.47971704 -158.53715962 512.49043465 -161.08935547 512.49829102 C-164.98961607 512.51549306 -168.88902694 512.55937079 -172.7890625 512.60351562 C-175.26692084 512.61364319 -177.7447864 512.62215909 -180.22265625 512.62890625 C-181.38847229 512.64641434 -182.55428833 512.66392242 -183.75543213 512.68196106 C-190.04765874 512.66513801 -194.03035174 512.52573968 -198.76953125 508.203125 C-201.50360364 504.1576516 -201.60581078 499.91670054 -200.76953125 495.203125 C-197.85292497 488.63501953 -192.56111222 483.73658007 -187.4296875 478.85546875 C-184.67421628 476.10808996 -182.14606625 473.23380281 -179.60131836 470.29321289 C-176.65765307 466.93446059 -173.58739055 463.69810779 -170.51953125 460.453125 C-165.11716221 454.71498163 -159.75693211 448.94377091 -154.44140625 443.125 C-151.5807547 439.99668515 -148.70843375 436.8794478 -145.83203125 433.765625 C-145.33292236 433.22526611 -144.83381348 432.68490723 -144.31958008 432.12817383 C-143.30832513 431.03347608 -142.29701313 429.93883104 -141.28564453 428.84423828 C-139.77858308 427.21292313 -138.27200095 425.58116691 -136.765625 423.94921875 C-136.27022217 423.41264648 -135.77481934 422.87607422 -135.2644043 422.32324219 C-134.27436005 421.2502496 -133.28493085 420.17668917 -132.29614258 419.10253906 C-129.661778 416.24259534 -127.0141943 413.39640158 -124.34765625 410.56640625 C-123.79078125 409.97214844 -123.23390625 409.37789063 -122.66015625 408.765625 C-121.58605268 407.61991452 -120.5080634 406.47783159 -119.42578125 405.33984375 C-116.64104129 402.71332298 -116.64104129 402.71332298 -115.76953125 399.203125 C-117.29423539 397.93075534 -117.29423539 397.93075534 -119.26953125 396.640625 C-122.45180078 394.30470375 -125.29366163 391.87471381 -128.01953125 389.015625 C-128.6434375 388.36207031 -129.26734375 387.70851563 -129.91015625 387.03515625 C-135.25645162 378.89216435 -136.35594635 370.52528617 -136.27746582 360.98278809 C-136.28370578 359.801004 -136.28994575 358.61921992 -136.2963748 357.4016242 C-136.30948285 354.15245121 -136.30488307 350.90388556 -136.29242992 347.65472865 C-136.28332701 344.13862835 -136.29737495 340.62260607 -136.30834961 337.10652161 C-136.32608388 330.23081968 -136.32231769 323.35529297 -136.31069905 316.47958434 C-136.30164486 310.8887747 -136.30044929 305.29801397 -136.30479431 299.7071991 C-136.30540724 298.90978604 -136.30602018 298.11237298 -136.30665168 297.29079589 C-136.30793066 295.6705828 -136.30922751 294.05036972 -136.31054205 292.43015665 C-136.32193292 277.25738624 -136.30885762 262.08471268 -136.28734058 246.91195816 C-136.26947094 233.90886763 -136.27257547 220.90591998 -136.29101562 207.90283203 C-136.31244876 192.78228039 -136.32083443 177.66181351 -136.30856657 162.5412488 C-136.30729245 160.92718285 -136.30603496 159.31311688 -136.30479431 157.6990509 C-136.30417721 156.90501573 -136.30356011 156.11098056 -136.30292431 155.29288372 C-136.29947873 149.7124215 -136.30528262 144.1320133 -136.31471252 138.55155945 C-136.32596109 131.74561295 -136.32283269 124.93985085 -136.30158955 118.13392532 C-136.29111732 114.66512656 -136.28689119 111.19663462 -136.30018616 107.72783852 C-136.31115216 103.95940908 -136.2973633 100.19183705 -136.27746582 96.42346191 C-136.28638871 95.33852243 -136.29531159 94.25358294 -136.30450487 93.13576651 C-136.19058362 81.97604701 -133.04767254 73.44336467 -125.24609375 65.42578125 C-117.20845069 58.21218677 -107.3984605 54.43970961 -96.78125 52.71875 C-91.90310197 50.26385838 -89.98582388 45.83693297 -87.33203125 41.203125 C-86.25307149 39.36798234 -85.17103985 37.5346423 -84.0859375 35.703125 C-83.5487207 34.7946582 -83.01150391 33.88619141 -82.45800781 32.95019531 C-74.14827799 19.4306638 -65.72024928 8.32560667 -49.76953125 4.203125 C-45.68151547 3.48932794 -41.582485 3.01844026 -37.45703125 2.578125 C-36.40580078 2.45695313 -35.35457031 2.33578125 -34.27148438 2.2109375 C-31.10534656 1.85287397 -27.94099398 1.51112812 -24.76953125 1.203125 C-23.47359291 1.07653503 -23.47359291 1.07653503 -22.151474 0.9473877 C-14.75704754 0.27202359 -7.42304627 0.02937023 0 0 Z M-62.76953125 414.203125 C-64.74953125 417.173125 -66.72953125 420.143125 -68.76953125 423.203125 C-12.66953125 423.203125 43.43046875 423.203125 101.23046875 423.203125 C99.25046875 420.233125 97.27046875 417.263125 95.23046875 414.203125 C94.61865218 413.1355364 94.00683561 412.06794781 93.37647915 410.96800804 C90.87853336 406.85769837 88.9552287 403.79589306 84.28906441 402.19221878 C80.65800233 401.76925236 77.17695723 401.71597806 73.52172852 401.77978516 C72.14594949 401.76485659 70.77021448 401.74525775 69.39456177 401.72137451 C65.67650077 401.67143989 61.96181539 401.69056821 58.24369931 401.72554445 C54.34140925 401.75351642 50.43939631 401.72753222 46.53709412 401.71029663 C39.98408435 401.69031574 33.43244069 401.71656672 26.87963867 401.76904297 C19.32023279 401.82888408 11.76409143 401.80953332 4.2047649 401.74895251 C-2.30192305 401.698909 -8.80763242 401.69205026 -15.3144508 401.72077787 C-19.19346343 401.73786459 -23.07094553 401.74039658 -26.94985771 401.7038765 C-30.59988055 401.67190858 -34.24573048 401.69445149 -37.89530563 401.75771332 C-39.86033762 401.77901486 -41.82572598 401.74666444 -43.79057312 401.71231079 C-53.89467897 401.97630012 -57.488951 405.94310539 -62.76953125 414.203125 Z M-88.69315541 449.26480824 C-90.21799897 452.01071699 -92.02728136 454.58975016 -93.76953125 457.203125 C-21.16953125 457.203125 51.43046875 457.203125 126.23046875 457.203125 C124.25046875 454.233125 122.27046875 451.263125 120.23046875 448.203125 C119.39393926 446.60257059 119.39393926 446.60257059 118.54051018 444.96968174 C116.72669237 441.7388277 115.09671542 439.57360655 112.23046875 437.203125 C106.11875197 435.54306922 100.15236799 435.66516719 93.85595703 435.73217773 C91.97934763 435.71234398 90.10278228 435.68788476 88.22628784 435.65916443 C83.14290812 435.59632381 78.0618764 435.60327041 72.97824717 435.62674975 C68.72871325 435.64008226 64.47962037 435.61936646 60.23013675 435.59876686 C50.20137576 435.55075005 40.17376415 435.55938706 30.14501953 435.60424805 C19.81237264 435.64956445 9.48300035 435.60384438 -0.84926784 435.51240581 C-9.73298154 435.43676684 -18.61567537 435.41568948 -27.49968159 435.43851238 C-32.80025516 435.45171989 -38.09882349 435.4450252 -43.39913559 435.38668633 C-48.38631993 435.33435122 -53.36877269 435.3505217 -58.35572433 435.41839027 C-60.18015109 435.43205045 -62.00493881 435.42211072 -63.82906342 435.38620758 C-76.69290152 435.15294128 -82.67497418 437.54998722 -88.69315541 449.26480824 Z " fill="#E43240" transform="translate(239.76953125,-0.203125)"/>
<path d="M0 0 C1.78157249 -0.01038551 1.78157249 -0.01038551 3.59913635 -0.02098083 C7.41378105 -0.03817731 11.22828711 -0.04456787 15.04296875 -0.046875 C16.98891937 -0.04888412 16.98891937 -0.04888412 18.97418213 -0.05093384 C80.5482638 -0.03711795 80.5482638 -0.03711795 97.23046875 11.203125 C97.82214844 11.59886719 98.41382813 11.99460937 99.0234375 12.40234375 C106.71937545 18.26675413 111.61734713 27.45416842 116.484375 35.6484375 C117.0520459 36.59517334 117.6197168 37.54190918 118.20458984 38.51733398 C119.332101 40.40814031 120.44362728 42.30858613 121.53759766 44.21899414 C124.50418456 49.363741 124.50418456 49.363741 129.234375 52.70703125 C130.22308594 52.87074219 131.21179688 53.03445312 132.23046875 53.203125 C144.67101953 56.67637522 156.80019054 61.07743669 163.734375 72.73046875 C166.6107173 78.3110645 168.35172106 82.86658732 168.36468983 89.17800999 C168.36914767 90.18589181 168.37360551 91.19377364 168.37819844 92.23219734 C168.3779219 93.89019141 168.3779219 93.89019141 168.37763977 95.5816803 C168.38131646 96.75748341 168.38499315 97.93328651 168.38878125 99.14472002 C168.39789971 102.40950701 168.40251595 105.67426446 168.40517056 108.939062 C168.40907752 112.46003363 168.41865565 115.98099076 168.42738342 119.50195312 C168.44713772 128.00615649 168.45721315 136.51036102 168.46611121 145.01458159 C168.47049618 149.02135858 168.47586248 153.02813425 168.48110008 157.0349102 C168.49811203 170.35809715 168.51260529 183.68128327 168.51984882 197.00447941 C168.52175866 200.46123824 168.523679 203.91799706 168.52563477 207.37475586 C168.52611851 208.23389611 168.52660225 209.09303636 168.52710065 209.97821116 C168.53539755 223.88976505 168.56072887 237.80123287 168.59321544 251.71274919 C168.62631133 266.00193747 168.64429991 280.29108205 168.64749306 294.58030885 C168.64965592 302.60050478 168.65837152 310.6205752 168.68395424 318.64073372 C168.70569591 325.47244168 168.71369471 332.30399366 168.70398746 339.1357323 C168.69945261 342.61867811 168.70128078 346.10130233 168.7207489 349.58420372 C168.73846062 353.36830044 168.73136378 357.1515866 168.71821594 360.9356842 C168.73466981 362.57025569 168.73466981 362.57025569 168.75145608 364.23784882 C168.65688201 375.54737957 165.45334767 383.82492005 157.625 391.96484375 C154.36009414 395.01670518 150.94114878 397.71585718 147.23046875 400.203125 C147.79894531 400.76 148.36742187 401.316875 148.953125 401.890625 C150.11134766 403.0353125 150.11134766 403.0353125 151.29296875 404.203125 C152.04707031 404.945625 152.80117188 405.688125 153.578125 406.453125 C156.28693144 409.26166658 158.83780817 412.16908826 161.39428711 415.11523438 C164.34387046 418.46915497 167.41238661 421.70790651 170.48046875 424.953125 C175.88283779 430.69126837 181.24306789 436.46247909 186.55859375 442.28125 C189.4192453 445.40956485 192.29156625 448.5268022 195.16796875 451.640625 C195.66707764 452.18098389 196.16618652 452.72134277 196.68041992 453.27807617 C197.69167487 454.37277392 198.70298687 455.46741896 199.71435547 456.56201172 C201.22141692 458.19332687 202.72799905 459.82508309 204.234375 461.45703125 C204.72921387 461.99303955 205.22405273 462.52904785 205.73388672 463.08129883 C206.72943708 464.16016359 207.72455632 465.23942635 208.71923828 466.3190918 C211.27089654 469.08749484 213.8309095 471.84735076 216.40625 474.59375 C233.61577703 492.99399025 233.61577703 492.99399025 233.515625 501.87890625 C233.07701005 505.45391853 231.57211483 507.5362503 229.23046875 510.203125 C226.05825386 512.21276548 223.54343134 512.46379732 219.82275391 512.49365234 C218.20054428 512.5127919 218.20054428 512.5127919 216.54556274 512.53231812 C214.80017715 512.53565659 214.80017715 512.53565659 213.01953125 512.5390625 C211.81863861 512.5457193 210.61774597 512.5523761 209.38046265 512.55923462 C206.84024589 512.56935944 204.30000254 512.57405169 201.75976562 512.57373047 C197.87715727 512.57810059 193.99568826 512.61441615 190.11328125 512.65234375 C187.64453514 512.65821251 185.17578362 512.66218151 182.70703125 512.6640625 C181.54748932 512.67843353 180.38794739 512.69280457 179.19326782 512.70761108 C171.73813951 512.66543946 167.81721323 511.67164044 162.34179688 506.37670898 C158.21645965 501.50751073 154.40918353 496.47937527 150.73046875 491.265625 C149.15348531 489.04211672 147.57364585 486.82283367 145.96291798 484.62361968 C144.84149601 483.05682287 143.75999371 481.46034036 142.72900182 479.83261335 C139.64935422 475.18982344 139.64935422 475.18982344 135.01352918 472.3647759 C132.39572633 472.03109178 129.90737812 471.98329499 127.26872253 472.03335571 C126.28157755 472.01649353 125.29443256 471.99963135 124.27737409 471.9822582 C120.97700989 471.93707281 117.68021048 471.95604327 114.37963867 471.97509766 C112.0105933 471.95634887 109.64157518 471.93383386 107.27259827 471.90783691 C100.84246153 471.84971761 94.41352721 471.84917028 87.98318648 471.8624692 C83.96461059 471.86938575 79.94621253 471.85855032 75.92766762 471.84302902 C75.25986586 471.84049503 74.59206409 471.83796104 73.90402592 471.83535027 C72.54721991 471.83018333 71.19041397 471.82500258 69.83360807 471.81980817 C57.11722332 471.77348049 44.40138161 471.78536754 31.68498109 471.81514792 C20.06473248 471.84057756 8.44609176 471.79390481 -3.17386059 471.71291907 C-15.11851846 471.63030846 -27.06242011 471.59603334 -39.0073635 471.61394155 C-45.70840942 471.62315744 -52.4079343 471.61245583 -59.10877419 471.55354691 C-65.4127149 471.50030232 -71.71348991 471.51015489 -78.01735878 471.56808472 C-80.32718966 471.57885946 -82.63724756 471.56758068 -84.94683456 471.53232956 C-97.49326477 470.82668797 -97.49326477 470.82668797 -108.28709984 476.02193832 C-110.94809658 479.14288119 -112.85584576 482.57989982 -114.76953125 486.203125 C-116.0064924 487.960982 -117.26571461 489.70376871 -118.5625 491.41796875 C-120.27236491 493.79159507 -121.97665559 496.16836821 -123.66601562 498.55664062 C-127.5525737 503.92675345 -131.72534353 509.18103114 -137.76953125 512.203125 C-139.49386385 512.31403212 -141.22239156 512.36230787 -142.95019531 512.38012695 C-144.03181946 512.39296219 -145.1134436 512.40579742 -146.22784424 512.41902161 C-147.98871368 512.43010201 -147.98871368 512.43010201 -149.78515625 512.44140625 C-150.98887878 512.449478 -152.19260132 512.45754974 -153.43280029 512.46586609 C-155.98497065 512.47971704 -158.53715962 512.49043465 -161.08935547 512.49829102 C-164.98961607 512.51549306 -168.88902694 512.55937079 -172.7890625 512.60351562 C-175.26692084 512.61364319 -177.7447864 512.62215909 -180.22265625 512.62890625 C-181.38847229 512.64641434 -182.55428833 512.66392242 -183.75543213 512.68196106 C-190.04765874 512.66513801 -194.03035174 512.52573968 -198.76953125 508.203125 C-201.50360364 504.1576516 -201.60581078 499.91670054 -200.76953125 495.203125 C-197.85292497 488.63501953 -192.56111222 483.73658007 -187.4296875 478.85546875 C-184.67421628 476.10808996 -182.14606625 473.23380281 -179.60131836 470.29321289 C-176.65765307 466.93446059 -173.58739055 463.69810779 -170.51953125 460.453125 C-165.11716221 454.71498163 -159.75693211 448.94377091 -154.44140625 443.125 C-151.5807547 439.99668515 -148.70843375 436.8794478 -145.83203125 433.765625 C-145.33292236 433.22526611 -144.83381348 432.68490723 -144.31958008 432.12817383 C-143.30832513 431.03347608 -142.29701313 429.93883104 -141.28564453 428.84423828 C-139.77858308 427.21292313 -138.27200095 425.58116691 -136.765625 423.94921875 C-136.27022217 423.41264648 -135.77481934 422.87607422 -135.2644043 422.32324219 C-134.27436005 421.2502496 -133.28493085 420.17668917 -132.29614258 419.10253906 C-129.661778 416.24259534 -127.0141943 413.39640158 -124.34765625 410.56640625 C-123.79078125 409.97214844 -123.23390625 409.37789063 -122.66015625 408.765625 C-121.58605268 407.61991452 -120.5080634 406.47783159 -119.42578125 405.33984375 C-116.64104129 402.71332298 -116.64104129 402.71332298 -115.76953125 399.203125 C-117.29423539 397.93075534 -117.29423539 397.93075534 -119.26953125 396.640625 C-122.45180078 394.30470375 -125.29366163 391.87471381 -128.01953125 389.015625 C-128.6434375 388.36207031 -129.26734375 387.70851563 -129.91015625 387.03515625 C-135.25645162 378.89216435 -136.35594635 370.52528617 -136.27746582 360.98278809 C-136.28370578 359.801004 -136.28994575 358.61921992 -136.2963748 357.4016242 C-136.30948285 354.15245121 -136.30488307 350.90388556 -136.29242992 347.65472865 C-136.28332701 344.13862835 -136.29737495 340.62260607 -136.30834961 337.10652161 C-136.32608388 330.23081968 -136.32231769 323.35529297 -136.31069905 316.47958434 C-136.30164486 310.8887747 -136.30044929 305.29801397 -136.30479431 299.7071991 C-136.30540724 298.90978604 -136.30602018 298.11237298 -136.30665168 297.29079589 C-136.30793066 295.6705828 -136.30922751 294.05036972 -136.31054205 292.43015665 C-136.32193292 277.25738624 -136.30885762 262.08471268 -136.28734058 246.91195816 C-136.26947094 233.90886763 -136.27257547 220.90591998 -136.29101562 207.90283203 C-136.31244876 192.78228039 -136.32083443 177.66181351 -136.30856657 162.5412488 C-136.30729245 160.92718285 -136.30603496 159.31311688 -136.30479431 157.6990509 C-136.30417721 156.90501573 -136.30356011 156.11098056 -136.30292431 155.29288372 C-136.29947873 149.7124215 -136.30528262 144.1320133 -136.31471252 138.55155945 C-136.32596109 131.74561295 -136.32283269 124.93985085 -136.30158955 118.13392532 C-136.29111732 114.66512656 -136.28689119 111.19663462 -136.30018616 107.72783852 C-136.31115216 103.95940908 -136.2973633 100.19183705 -136.27746582 96.42346191 C-136.28638871 95.33852243 -136.29531159 94.25358294 -136.30450487 93.13576651 C-136.19058362 81.97604701 -133.04767254 73.44336467 -125.24609375 65.42578125 C-117.20845069 58.21218677 -107.3984605 54.43970961 -96.78125 52.71875 C-91.90310197 50.26385838 -89.98582388 45.83693297 -87.33203125 41.203125 C-86.25307149 39.36798234 -85.17103985 37.5346423 -84.0859375 35.703125 C-83.5487207 34.7946582 -83.01150391 33.88619141 -82.45800781 32.95019531 C-74.14827799 19.4306638 -65.72024928 8.32560667 -49.76953125 4.203125 C-45.68151547 3.48932794 -41.582485 3.01844026 -37.45703125 2.578125 C-36.40580078 2.45695313 -35.35457031 2.33578125 -34.27148438 2.2109375 C-31.10534656 1.85287397 -27.94099398 1.51112812 -24.76953125 1.203125 C-23.47359291 1.07653503 -23.47359291 1.07653503 -22.151474 0.9473877 C-14.75704754 0.27202359 -7.42304627 0.02937023 0 0 Z M-43.76953125 60.203125 C-45.22332613 60.33079237 -46.67717642 60.45783168 -48.13110352 60.58398438 C-60.76834166 61.71825683 -73.36443604 63.13494031 -85.89453125 65.140625 C-86.83506348 65.28612793 -87.7755957 65.43163086 -88.74462891 65.58154297 C-100.49242126 67.57430258 -110.55632597 71.15234147 -118.47265625 80.32421875 C-121.08746396 84.11253955 -122.01922635 87.62863471 -122.02680016 92.19452953 C-122.03324905 93.18063534 -122.03969794 94.16674115 -122.04634225 95.18272895 C-122.04324505 96.25859096 -122.04014785 97.33445298 -122.03695679 98.44291687 C-122.0414879 99.5916951 -122.04601901 100.74047333 -122.05068743 101.92406303 C-122.06115663 105.10874736 -122.06265743 108.29328967 -122.06029868 111.47798574 C-122.05989041 114.91440216 -122.07093082 118.35078494 -122.08041382 121.78718567 C-122.09702364 128.51894289 -122.10252339 135.25066509 -122.10363857 141.98244109 C-122.10458924 147.45611643 -122.10870047 152.92978023 -122.11503983 158.40345192 C-122.13265368 173.92844342 -122.1418787 189.45340727 -122.14037888 204.97840884 C-122.14029897 205.81528734 -122.14021905 206.65216584 -122.14013672 207.5144043 C-122.14005496 208.35230705 -122.1399732 209.1902098 -122.13988896 210.05350355 C-122.13907644 223.62618331 -122.15820499 237.198752 -122.18641345 250.77139964 C-122.21516103 264.71370713 -122.22895266 278.65596049 -122.2272259 292.59829837 C-122.22656255 300.42338012 -122.23203033 308.24834548 -122.253582 316.0734005 C-122.27181868 322.73750475 -122.27612096 329.40143989 -122.26256315 336.06555834 C-122.25604525 339.46339611 -122.25805788 342.86064573 -122.27326965 346.25849533 C-122.28871861 349.94875705 -122.27941471 353.63817128 -122.26400757 357.32841492 C-122.27429469 358.39312332 -122.28458182 359.45783173 -122.29518068 360.55480403 C-122.22674349 367.98921137 -121.16711789 375.3534237 -116.07810342 381.11963004 C-110.44941801 386.40082744 -104.38017541 388.58642469 -96.73266602 388.54370117 C-95.73626854 388.54435829 -95.73626854 388.54435829 -94.71974182 388.54502869 C-92.54982891 388.54295828 -90.38071344 388.51971229 -88.2109375 388.49609375 C-86.69636965 388.49049153 -85.18179632 388.48622439 -83.66722107 388.48323059 C-79.70021288 388.47183102 -75.73353944 388.44240671 -71.7666626 388.40911865 C-67.71102424 388.3783117 -63.65533127 388.36470265 -59.59960938 388.34960938 C-51.65609718 388.31753164 -43.71285597 388.26639537 -35.76953125 388.203125 C-35.44194824 386.97045898 -35.11436523 385.73779297 -34.77685547 384.46777344 C-34.33463019 382.83259563 -33.89206672 381.19750927 -33.44921875 379.5625 C-33.23483154 378.75216309 -33.02044434 377.94182617 -32.79956055 377.10693359 C-30.22970214 367.67933385 -26.17997244 359.62459313 -17.76953125 354.203125 C-11.12586966 351.1364486 -4.74551278 350.76056501 2.4765625 350.8046875 C3.52771744 350.80181732 4.57887238 350.79894714 5.66188049 350.79598999 C7.87298118 350.79395908 10.08410024 350.79942041 12.29516602 350.81201172 C15.65487398 350.82806244 19.01337612 350.81213738 22.37304688 350.79296875 C24.53255471 350.79495167 26.69206179 350.79879635 28.8515625 350.8046875 C30.33951576 350.79557846 30.33951576 350.79557846 31.85752869 350.7862854 C41.14929391 350.87865953 49.54056322 352.37003075 56.41796875 359.01171875 C61.77312581 365.48638062 64.36636129 373.08670444 66.40234375 381.109375 C66.66990479 382.13853027 66.66990479 382.13853027 66.94287109 383.18847656 C67.37647956 384.85888769 67.80410798 386.53084927 68.23046875 388.203125 C76.82798687 388.27283546 85.4253856 388.32604254 94.02311707 388.35856152 C98.01600169 388.37417413 102.00869201 388.3953311 106.00146484 388.42944336 C109.8594146 388.46219505 113.71717822 388.48001109 117.57525635 388.48775673 C119.04236783 388.49327202 120.50946987 388.50404173 121.97650146 388.52031517 C132.0266285 388.62729931 140.90572475 388.45903308 148.56839037 381.1197089 C154.41571862 374.37700934 154.80984788 365.85721833 154.73840332 357.34860229 C154.74464328 356.19414081 154.75088325 355.03967932 154.7573123 353.85023415 C154.77319844 350.00264684 154.76065451 346.15569688 154.74804688 342.30810547 C154.7512705 339.5413076 154.76044941 336.77453633 154.76928711 334.00775146 C154.78702806 327.28598832 154.78325253 320.56440433 154.77163655 313.84263431 C154.7625865 308.37858625 154.76138499 302.91458823 154.76573181 297.45053482 C154.76665121 296.28205404 154.76665121 296.28205404 154.76758918 295.08996759 C154.76886813 293.50727476 154.77016499 291.92458195 154.77147955 290.34188916 C154.78287198 275.51877576 154.76979188 260.69576149 154.74827808 245.87266435 C154.73040125 233.16196754 154.73351859 220.45141684 154.75195312 207.74072266 C154.77337134 192.96593164 154.78178088 178.19122734 154.76950407 163.41642296 C154.76822992 161.84030987 154.76697244 160.26419677 154.76573181 158.68808365 C154.76511471 157.91268013 154.76449761 157.13727661 154.76386181 156.33837601 C154.76041228 150.88175047 154.76622851 145.42518008 154.77565002 139.96856308 C154.78688167 133.31767958 154.7838053 126.66698486 154.76252705 120.01612292 C154.752033 116.62458726 154.75002846 113.23362585 154.76112366 109.84205246 C154.77205202 106.16228132 154.75834639 102.48339516 154.73840332 98.80368042 C154.74732621 97.73655693 154.75624909 96.66943344 154.76544237 95.56997287 C154.68679129 88.08956216 153.33243036 82.89625274 148.40625 77.03125 C147.79136719 76.51046875 147.17648437 75.9896875 146.54296875 75.453125 C145.94097656 74.92203125 145.33898437 74.3909375 144.71875 73.84375 C137.71536561 69.22613392 130.57730966 67.3888507 122.35546875 66.203125 C121.2895752 66.04215332 120.22368164 65.88118164 119.12548828 65.71533203 C103.87502883 63.48044416 88.56608352 61.73174228 73.23046875 60.203125 C72.03470215 60.08163086 70.83893555 59.96013672 69.60693359 59.83496094 C50.41453695 57.98608879 31.18180553 57.9984839 11.91796875 57.953125 C10.00952682 57.9450885 10.00952682 57.9450885 8.06253052 57.93688965 C-9.31464783 57.88143459 -26.46734995 58.60123397 -43.76953125 60.203125 Z M-62.76953125 414.203125 C-64.74953125 417.173125 -66.72953125 420.143125 -68.76953125 423.203125 C-12.66953125 423.203125 43.43046875 423.203125 101.23046875 423.203125 C99.25046875 420.233125 97.27046875 417.263125 95.23046875 414.203125 C94.61865218 413.1355364 94.00683561 412.06794781 93.37647915 410.96800804 C90.87853336 406.85769837 88.9552287 403.79589306 84.28906441 402.19221878 C80.65800233 401.76925236 77.17695723 401.71597806 73.52172852 401.77978516 C72.14594949 401.76485659 70.77021448 401.74525775 69.39456177 401.72137451 C65.67650077 401.67143989 61.96181539 401.69056821 58.24369931 401.72554445 C54.34140925 401.75351642 50.43939631 401.72753222 46.53709412 401.71029663 C39.98408435 401.69031574 33.43244069 401.71656672 26.87963867 401.76904297 C19.32023279 401.82888408 11.76409143 401.80953332 4.2047649 401.74895251 C-2.30192305 401.698909 -8.80763242 401.69205026 -15.3144508 401.72077787 C-19.19346343 401.73786459 -23.07094553 401.74039658 -26.94985771 401.7038765 C-30.59988055 401.67190858 -34.24573048 401.69445149 -37.89530563 401.75771332 C-39.86033762 401.77901486 -41.82572598 401.74666444 -43.79057312 401.71231079 C-53.89467897 401.97630012 -57.488951 405.94310539 -62.76953125 414.203125 Z M-88.69315541 449.26480824 C-90.21799897 452.01071699 -92.02728136 454.58975016 -93.76953125 457.203125 C-21.16953125 457.203125 51.43046875 457.203125 126.23046875 457.203125 C124.25046875 454.233125 122.27046875 451.263125 120.23046875 448.203125 C119.39393926 446.60257059 119.39393926 446.60257059 118.54051018 444.96968174 C116.72669237 441.7388277 115.09671542 439.57360655 112.23046875 437.203125 C106.11875197 435.54306922 100.15236799 435.66516719 93.85595703 435.73217773 C91.97934763 435.71234398 90.10278228 435.68788476 88.22628784 435.65916443 C83.14290812 435.59632381 78.0618764 435.60327041 72.97824717 435.62674975 C68.72871325 435.64008226 64.47962037 435.61936646 60.23013675 435.59876686 C50.20137576 435.55075005 40.17376415 435.55938706 30.14501953 435.60424805 C19.81237264 435.64956445 9.48300035 435.60384438 -0.84926784 435.51240581 C-9.73298154 435.43676684 -18.61567537 435.41568948 -27.49968159 435.43851238 C-32.80025516 435.45171989 -38.09882349 435.4450252 -43.39913559 435.38668633 C-48.38631993 435.33435122 -53.36877269 435.3505217 -58.35572433 435.41839027 C-60.18015109 435.43205045 -62.00493881 435.42211072 -63.82906342 435.38620758 C-76.69290152 435.15294128 -82.67497418 437.54998722 -88.69315541 449.26480824 Z " fill="#000000" transform="translate(239.76953125,-0.203125)"/>
<path d="M0 0 C0.85164346 -0.00297112 1.70328693 -0.00594224 2.58073777 -0.0090034 C5.45114841 -0.01771548 8.32151747 -0.01920076 11.19194031 -0.02069092 C13.24321075 -0.02531732 15.29448033 -0.03034174 17.3457489 -0.03573608 C22.9304985 -0.0488793 28.51523606 -0.05530879 34.09999871 -0.05974674 C37.58659735 -0.0626744 41.07319268 -0.06677861 44.55978966 -0.07125092 C55.46116379 -0.08493095 66.36253038 -0.09459511 77.2639125 -0.09845281 C89.86161271 -0.10293485 102.45920448 -0.12048745 115.05687171 -0.1494534 C124.78514973 -0.17104772 134.51339719 -0.18115589 144.24169892 -0.18249393 C150.05624853 -0.18354358 155.87069628 -0.18948533 161.68522072 -0.20731354 C167.15414648 -0.22375529 172.6228934 -0.22596867 178.09183502 -0.21717453 C180.10060034 -0.21640206 182.10937511 -0.22077436 184.11811638 -0.23063278 C186.85776758 -0.24329112 189.5967795 -0.23750882 192.33642578 -0.22705078 C193.13370553 -0.23510719 193.93098528 -0.24316359 194.75242501 -0.25146413 C199.29976952 -0.21079059 202.26653942 0.28278364 205.85868835 3.14044189 C208.34614226 6.87162275 208.12327194 8.82627008 208.1492157 13.28643799 C208.15593292 14.0103624 208.16265015 14.7342868 208.16957092 15.48014832 C208.18857819 17.87479505 208.19247653 20.2691619 208.19462585 22.66387939 C208.20105218 24.32913326 208.20778042 25.99438598 208.21479797 27.65963745 C208.22677775 31.15163795 208.23047811 34.64353948 208.22929382 38.13555908 C208.22909066 42.60692298 208.2563867 47.07765111 208.29083824 51.54886436 C208.31309349 54.98901271 208.31713178 58.42900777 208.31607437 61.86922073 C208.31843264 63.51743383 208.32726895 65.165651 208.34273911 66.81379318 C208.36237103 69.12153156 208.35657316 71.42789547 208.3445282 73.73565674 C208.34737823 75.04787201 208.35022827 76.36008728 208.35316467 77.71206665 C207.77943885 81.68990609 206.66782812 83.32450817 203.85868835 86.14044189 C200.66132503 87.73912356 197.1916309 87.28841444 193.67941284 87.28761292 C192.39582232 87.29312795 192.39582232 87.29312795 191.08630067 87.29875439 C188.20207432 87.30981908 185.31788396 87.31363977 182.43363953 87.31744385 C180.37251673 87.32370634 178.31139507 87.33035295 176.25027466 87.33735657 C170.63867002 87.35478498 165.02707391 87.36532311 159.4154489 87.3735621 C155.91209943 87.37870781 152.40875263 87.3847837 148.90540504 87.39107323 C137.95170725 87.41012949 126.99801622 87.42436032 116.04430503 87.4326852 C103.3860127 87.44246355 90.72789496 87.46879695 78.06966418 87.50918609 C68.29467816 87.53930895 58.51974229 87.55415039 48.74471074 87.55746621 C42.90217911 87.55982086 37.0598339 87.56883538 31.21735191 87.59392738 C25.72212441 87.6171464 20.2272069 87.62146618 14.73194313 87.611166 C12.71349687 87.61066904 10.69503567 87.61703634 8.67663574 87.63072205 C5.92368732 87.64834596 3.17186288 87.64138184 0.41891479 87.62818909 C-0.3822559 87.63915833 -1.1834266 87.65012758 -2.00887519 87.66142923 C-5.76579197 87.61787859 -7.91897215 87.28296919 -11.1138258 85.2349577 C-14.63128007 81.60121418 -14.2809786 79.08704648 -14.3183136 74.10797119 C-14.3248848 73.38419281 -14.33145599 72.66041443 -14.33822632 71.91470337 C-14.35796895 69.51468811 -14.36962414 67.11473546 -14.3795929 64.71466064 C-14.38366842 63.89529337 -14.38774395 63.07592609 -14.39194298 62.23172951 C-14.41280808 57.89474361 -14.42710773 53.5577894 -14.43647766 49.22076416 C-14.44754168 44.74156248 -14.48193986 40.26285764 -14.52164936 35.7838316 C-14.54779825 32.33941221 -14.55616795 28.89511149 -14.55975914 25.45060158 C-14.56462979 23.79958555 -14.57625746 22.14857499 -14.59479713 20.49765587 C-14.61915238 18.18506928 -14.61823082 15.87377183 -14.61128235 13.56109619 C-14.61714859 12.24586472 -14.62301483 10.93063324 -14.62905884 9.57554626 C-14.06308093 5.58947886 -12.95648111 3.95975195 -10.14131165 1.14044189 C-6.95293265 -0.4537476 -3.50187835 -0.00377416 0 0 Z " fill="#00CCF0" transform="translate(159.1413116455078,141.85955810546875)"/>
<path d="M0 0 C0.88854429 -0.00297112 1.77708859 -0.00594224 2.69255847 -0.0090034 C5.6819045 -0.01770286 8.67121054 -0.0191997 11.66056824 -0.02069092 C13.79903245 -0.02531819 15.93749583 -0.03034273 18.07595825 -0.03573608 C23.89417942 -0.04887045 29.71238904 -0.05530702 35.53062272 -0.05974674 C39.16380548 -0.06267568 42.79698507 -0.06678013 46.43016624 -0.07125092 C57.79232577 -0.08492831 69.15447807 -0.0945939 80.51664525 -0.09845281 C93.64238826 -0.10293489 106.76802721 -0.12048883 119.89373857 -0.1494534 C130.03308922 -0.17105303 140.17241055 -0.18115616 150.31178397 -0.18249393 C156.37059411 -0.18354315 162.42930646 -0.18947592 168.48809242 -0.20731354 C174.18684958 -0.22376454 179.88543513 -0.22596413 185.58420753 -0.21717453 C187.67640644 -0.21640257 189.76861446 -0.22076766 191.86079025 -0.23063278 C194.71607412 -0.24330709 197.57074603 -0.23749995 200.42602539 -0.22705078 C201.25472871 -0.23510719 202.08343203 -0.24316359 202.93724757 -0.25146413 C209.2403714 -0.19748378 213.322839 1.25334149 218.09098816 5.57794189 C224.0050176 12.13132587 225.64625482 17.75014953 225.67814636 26.67706299 C225.68325729 27.39514633 225.68836823 28.11322968 225.69363403 28.85307312 C225.70743682 31.20676204 225.70658025 33.56015503 225.70426941 35.91387939 C225.70816168 37.56383369 225.71249743 39.21378699 225.71725464 40.86373901 C225.724697 44.31505588 225.72444018 47.76627043 225.71916199 51.21759033 C225.71337232 55.62108635 225.73029571 60.02416108 225.75350666 64.42758751 C225.7683024 67.8335715 225.76910775 71.23945541 225.76599693 74.64546585 C225.76650729 76.26803038 225.77169091 77.89060094 225.78180885 79.513134 C225.83573779 89.37059489 225.85885769 97.90802518 220.21598816 106.45294189 C213.36264723 113.00168989 206.15187196 114.28865687 196.94142151 114.29434204 C196.07934637 114.29872429 195.21727123 114.30310655 194.32907259 114.3076216 C191.43509301 114.32099559 188.54114386 114.32718534 185.6471405 114.33331299 C183.57413089 114.34121508 181.50112264 114.3494841 179.42811584 114.35809326 C172.61523246 114.38430187 165.80234296 114.39962019 158.98942566 114.41387939 C156.64321005 114.41923963 154.29699449 114.42461714 151.95077896 114.43001175 C142.19018524 114.45163915 132.42959317 114.47037534 122.66898155 114.48163414 C108.68596998 114.49787009 94.70323641 114.53104121 80.72032964 114.58803499 C70.88577915 114.62675197 61.05130296 114.64626896 51.21667826 114.6515547 C45.34434689 114.65520582 39.47231212 114.66720219 33.60006332 114.69965744 C28.07273769 114.7297685 22.54588766 114.7360388 17.01849747 114.72427368 C14.99407934 114.7240532 12.96963895 114.73233696 10.94529724 114.74992752 C-9.40407206 114.91707415 -9.40407206 114.91707415 -16.59651184 109.14044189 C-22.96684449 102.51047359 -24.83833573 95.794629 -24.87117004 86.6038208 C-24.87628098 85.88573746 -24.88139191 85.16765411 -24.88665771 84.42781067 C-24.9004605 82.07412175 -24.89960393 79.72072876 -24.89729309 77.36700439 C-24.90118536 75.7170501 -24.90552112 74.0670968 -24.91027832 72.41714478 C-24.91772068 68.9658279 -24.91746386 65.51461336 -24.91218567 62.06329346 C-24.90639601 57.65979744 -24.92331939 53.25672271 -24.94653034 48.85329628 C-24.96132608 45.44731229 -24.96213143 42.04142838 -24.95902061 38.63541794 C-24.95953097 37.01285341 -24.96471459 35.39028285 -24.97483253 33.76774979 C-25.07456835 15.53742614 -25.07456835 15.53742614 -19.78401184 7.32794189 C-13.62471461 1.16864466 -8.40169632 -0.00871434 0 0 Z M-9.59651184 17.14044189 C-11.08799146 20.12340113 -10.74856066 22.84510898 -10.77351379 26.1729126 C-10.78008499 26.89669098 -10.78665619 27.62046936 -10.79342651 28.36618042 C-10.81316915 30.76619568 -10.82482434 33.16614832 -10.83479309 35.56622314 C-10.83886862 36.38559042 -10.84294415 37.2049577 -10.84714317 38.04915428 C-10.86800827 42.38614017 -10.88230793 46.72309439 -10.89167786 51.06011963 C-10.90274187 55.53932131 -10.93714005 60.01802615 -10.97684956 64.49705219 C-11.00299844 67.94147158 -11.01136814 71.38577229 -11.01495934 74.83028221 C-11.01982999 76.48129824 -11.03145766 78.1323088 -11.04999733 79.78322792 C-11.07435258 82.09581451 -11.07343102 84.40711196 -11.06648254 86.7197876 C-11.07234879 88.03501907 -11.07821503 89.35025055 -11.08425903 90.70533752 C-10.51828113 94.69140493 -9.41168131 96.32113184 -6.59651184 99.14044189 C-3.39914851 100.73912356 0.07054561 100.28841444 3.58276367 100.28761292 C4.8663542 100.29312795 4.8663542 100.29312795 6.17587584 100.29875439 C9.06010219 100.30981908 11.94429256 100.31363977 14.82853699 100.31744385 C16.88965978 100.32370634 18.95078144 100.33035295 21.01190186 100.33735657 C26.62350649 100.35478498 32.2351026 100.36532311 37.84672761 100.3735621 C41.35007708 100.37870781 44.85342388 100.3847837 48.35677147 100.39107323 C59.31046927 100.41012949 70.26416029 100.42436032 81.21787149 100.4326852 C93.87616381 100.44246355 106.53428155 100.46879695 119.19251233 100.50918609 C128.96749835 100.53930895 138.74243422 100.55415039 148.51746577 100.55746621 C154.3599974 100.55982086 160.20234261 100.56883538 166.0448246 100.59392738 C171.5400521 100.6171464 177.03496961 100.62146618 182.53023338 100.611166 C184.54867964 100.61066904 186.56714085 100.61703634 188.58554077 100.63072205 C191.33848919 100.64834596 194.09031363 100.64138184 196.84326172 100.62818909 C197.64443241 100.63915833 198.44560311 100.65012758 199.2710517 100.66142923 C203.02796848 100.61787859 205.18114867 100.28296919 208.37600231 98.2349577 C211.89345659 94.60121418 211.54315512 92.08704648 211.58049011 87.10797119 C211.59034691 86.02230362 211.59034691 86.02230362 211.60040283 84.91470337 C211.62014546 82.51468811 211.63180066 80.11473546 211.64176941 77.71466064 C211.64584494 76.89529337 211.64992046 76.07592609 211.65411949 75.23172951 C211.67498459 70.89474361 211.68928425 66.5577894 211.69865417 62.22076416 C211.70971819 57.74156248 211.74411637 53.26285764 211.78382587 48.7838316 C211.80997476 45.33941221 211.81834446 41.89511149 211.82193565 38.45060158 C211.8268063 36.79958555 211.83843398 35.14857499 211.85697365 33.49765587 C211.88132889 31.18506928 211.88040734 28.87377183 211.87345886 26.56109619 C211.8793251 25.24586472 211.88519135 23.93063324 211.89123535 22.57554626 C211.32288134 18.57274443 210.27736821 16.93519805 207.40348816 14.14044189 C203.62107037 12.87963596 200.08266967 12.99236392 196.141922 12.99327087 C194.86317516 12.98775584 194.86317516 12.98775584 193.55859506 12.9821294 C190.69129427 12.97108322 187.82402971 12.96724717 184.95671082 12.96343994 C182.90529261 12.95717612 180.85387554 12.9505294 178.80245972 12.94352722 C173.22190506 12.9261129 167.64135896 12.9155648 162.06078386 12.90732169 C158.57635759 12.90217366 155.091934 12.89609791 151.60750961 12.88981056 C140.71148034 12.87075938 129.81545785 12.8565267 118.91941512 12.84819859 C106.33018305 12.83841802 93.74112642 12.81207671 81.1519562 12.7716977 C71.427905 12.74157532 61.70390422 12.7267335 51.97980726 12.72341758 C46.16858922 12.72106316 40.35755864 12.71205136 34.54639053 12.68695641 C29.08151798 12.66373781 23.61695714 12.65941743 18.15204811 12.66971779 C16.14488884 12.67021473 14.13771455 12.66384783 12.13060188 12.65016174 C9.39303161 12.63253713 6.65659155 12.63950222 3.91902161 12.6526947 C2.72412517 12.63624083 2.72412517 12.63624083 1.5050894 12.61945456 C-3.48714418 12.67764746 -6.1072886 13.54082202 -9.59651184 17.14044189 Z " fill="#010000" transform="translate(155.5965118408203,128.85955810546875)"/>
<path d="M0 0 C10.01882618 6.97127449 16.40955969 16.63072822 18.8046875 28.6796875 C19.89091442 40.39840482 16.31363536 51.18149794 9.6796875 60.7421875 C2.33454185 68.93570863 -7.56818053 73.7850904 -18.42578125 75.05859375 C-31.2182181 75.53238771 -41.7630802 71.28640838 -51.1953125 62.6796875 C-58.67331912 54.05121832 -62.62479462 42.85185269 -62.47265625 31.4921875 C-61.27864175 19.38387142 -54.94938452 9.13372732 -45.71484375 1.4765625 C-32.29233849 -8.09607691 -14.09864411 -8.47925571 0 0 Z " fill="#030100" transform="translate(362.1953125,264.3203125)"/>
<path d="M0 0 C11.54973723 6.41652069 18.26301191 14.8466177 22.390625 27.328125 C24.57658525 38.47928933 22.92162933 48.7051362 17.140625 58.640625 C10.37704789 68.38510996 1.52495881 74.91097784 -10.2734375 77.04296875 C-23.23291733 78.62497883 -33.7720304 75.65300414 -44.12890625 67.59765625 C-50.61591727 61.66229656 -54.48222247 54.80270069 -56.609375 46.328125 C-56.83625 45.52375 -57.063125 44.719375 -57.296875 43.890625 C-58.92582103 30.53326756 -55.26953537 19.95217882 -47.0859375 9.35546875 C-35.73090236 -3.24585073 -15.3857053 -6.70174893 0 0 Z " fill="#030100" transform="translate(188.609375,261.671875)"/>
<path d="M0 0 C18.65084938 -0.36713015 37.18665603 -0.27779658 55.77539062 1.41534424 C56.47432434 1.47846802 57.17325806 1.5415918 57.89337158 1.60662842 C85.67827798 4.18133614 85.67827798 4.18133614 95.92773438 16.22393799 C107.02539062 31.12414312 107.02539062 31.12414312 107.02539062 36.04034424 C99.66564464 35.61074309 92.32757674 35.09405684 84.9921875 34.35577393 C81.33343057 33.98989823 77.67242916 33.65040266 74.01074219 33.31524658 C72.03563765 33.13337156 70.06100608 32.94627748 68.08691406 32.75372314 C49.37353505 30.98223805 30.68603124 30.82662414 11.90039062 30.79034424 C10.68396881 30.78516785 9.467547 30.77999146 8.21426392 30.7746582 C-17.23802494 30.68938085 -42.33258652 32.41680261 -67.55639648 35.79669189 C-70.04577053 36.04751424 -72.4743848 36.082168 -74.97460938 36.04034424 C-70.36588231 23.4710886 -62.02755324 10.97804894 -49.79345703 5.12432861 C-44.99752707 3.28005969 -40.18858388 2.76890006 -35.09960938 2.29034424 C-33.99375488 2.17457031 -32.88790039 2.05879639 -31.74853516 1.93951416 C-28.49240204 1.61173918 -25.23536588 1.31795479 -21.97460938 1.04034424 C-20.74967773 0.93230469 -20.74967773 0.93230469 -19.5 0.82208252 C-13.00446684 0.28553212 -6.51439381 0.13309886 0 0 Z " fill="#A4242F" transform="translate(239.974609375,13.95965576171875)"/>
<path d="M0 0 C22.09114994 -1.46606043 22.09114994 -1.46606043 28.41796875 1.72265625 C30.65681629 4.03282991 32.2576124 6.29814786 34 9 C38.50738862 14.46323562 43.3864199 19.6056201 48.25 24.75 C53.65236904 30.48814337 59.01259914 36.25935409 64.328125 42.078125 C67.18877655 45.20643985 70.0610975 48.3236772 72.9375 51.4375 C73.43660889 51.97785889 73.93571777 52.51821777 74.44995117 53.07495117 C75.46120612 54.16964892 76.47251812 55.26429396 77.48388672 56.35888672 C80.48887903 59.61163363 83.49208225 62.86603263 86.49536133 66.12036133 C89.01908744 68.85484388 91.54376674 71.58843477 94.0703125 74.3203125 C96.56357657 77.01671966 99.05415448 79.71557753 101.54199219 82.41699219 C102.52646209 83.48586406 103.51150229 84.5542109 104.49707031 85.62207031 C105.91733391 87.16232978 107.33415785 88.70567668 108.75 90.25 C109.56984375 91.14203125 110.3896875 92.0340625 111.234375 92.953125 C113 95 113 95 113 96 C107.11507553 96.42438436 101.23923464 96.73037116 95.3425293 96.93383789 C93.34420634 97.01869134 91.34691916 97.13425162 89.35229492 97.2824707 C73.28202837 98.44558291 73.28202837 98.44558291 67.83981323 94.39035034 C63.95904326 90.42099462 61.03628787 85.93586583 58.26750183 81.14602661 C56.36100645 77.9181103 54.15631959 74.95801579 51.9375 71.9375 C51.12679546 70.7957667 50.31795512 69.65270537 49.51171875 68.5078125 C46.82255869 64.72701321 44.04237831 61.01742919 41.25 57.3125 C35.04177293 49.07494931 28.92249096 40.77382012 22.81298828 32.46289062 C20.96075741 29.94669011 19.10404961 27.4338506 17.24609375 24.921875 C0 1.595718 0 1.595718 0 0 Z " fill="#132C37" transform="translate(344,402)"/>
<path d="M0 0 C1.5631897 0.00785522 1.5631897 0.00785522 3.15795898 0.01586914 C4.28266602 0.0190918 5.40737305 0.02231445 6.56616211 0.02563477 C7.75016602 0.03401367 8.93416992 0.04239258 10.15405273 0.05102539 C11.34192383 0.05553711 12.52979492 0.06004883 13.75366211 0.06469727 C16.69967499 0.07652864 19.64558954 0.09301252 22.59155273 0.11352539 C19.65716442 5.54994045 16.27599547 10.32194059 12.46655273 15.17602539 C8.43246245 20.38242986 4.4527428 25.6075776 0.65405273 30.98852539 C-7.954224 43.16587159 -16.88299692 55.11274898 -25.84912109 67.02807617 C-31.61456764 74.69928833 -37.29275505 82.43489997 -42.97314453 90.16918945 C-43.68361938 91.13163574 -43.68361938 91.13163574 -44.40844727 92.11352539 C-44.76390625 92.84764648 -45.11936523 93.58176758 -45.4855957 94.33813477 C-48.77744011 97.37753199 -52.80865827 96.60009106 -57.10766602 96.50415039 C-58.53294365 96.49566071 -58.53294365 96.49566071 -59.98701477 96.48699951 C-63.0238367 96.46459687 -66.05948158 96.41439309 -69.09594727 96.36352539 C-71.15387294 96.34346543 -73.2118171 96.32521378 -75.26977539 96.30883789 C-80.31645333 96.26471926 -85.3622507 96.19566469 -90.40844727 96.11352539 C-83.79662059 88.39211146 -77.14332583 80.75167735 -70.15844727 73.36352539 C-64.75607822 67.62538202 -59.39584812 61.8541713 -54.08032227 56.03540039 C-51.21967071 52.90708554 -48.34734977 49.78984819 -45.47094727 46.67602539 C-44.72228394 45.86548706 -44.72228394 45.86548706 -43.95849609 45.03857422 C-42.94724114 43.94387647 -41.93592914 42.84923143 -40.92456055 41.75463867 C-38.41830622 39.04174953 -35.91344281 36.3275768 -33.40844727 33.61352539 C-32.40845403 32.53018582 -31.40845402 31.44685248 -30.40844727 30.36352539 C-29.91344727 29.82727539 -29.41844727 29.29102539 -28.90844727 28.73852539 C-27.40844727 27.11352539 -25.90844727 25.48852539 -24.40844727 23.86352539 C-23.91256104 23.32630859 -23.4166748 22.7890918 -22.90576172 22.2355957 C-21.91474063 21.16200299 -20.92369285 20.08843491 -19.93261719 19.01489258 C-17.29501024 16.15773866 -14.65798913 13.30004665 -12.02172852 10.44165039 C-11.46936523 9.84288086 -10.91700195 9.24411133 -10.34790039 8.62719727 C-9.28262716 7.47240528 -8.21751671 6.31746311 -7.15258789 5.16235352 C-2.49847036 0.11776875 -2.49847036 0.11776875 0 0 Z " fill="#132C37" transform="translate(145.408447265625,401.886474609375)"/>
<path d="M0 0 C6.12124832 6.64592674 9.53857161 13.67843045 9.39453125 22.6875 C8.76169297 30.9024573 5.39228195 36.98971755 -0.8125 42.375 C-7.78442211 47.34460538 -14.38864433 48.41339772 -22.8125 47.375 C-29.41466097 46.08426611 -34.37793973 42.34052757 -38.8125 37.375 C-43.09787328 30.64437049 -44.5889965 24.30876863 -43.8125 16.375 C-42.00088696 8.70160719 -38.11916028 3.07790474 -31.8125 -1.625 C-20.65718353 -7.89322544 -10.79547997 -6.23738843 0 0 Z " fill="#FBD840" transform="translate(357.8125,277.625)"/>
<path d="M0 0 C5.71558812 4.41830002 9.66116461 9.3749323 11.6875 16.375 C12.79774589 25.70106543 11.1820033 33.2238025 5.375 40.8125 C-0.15541902 46.63254196 -6.52371736 49.27738815 -14.5 49.625 C-22.96669216 49.24648906 -29.12914853 46.33537933 -34.9375 40.1875 C-39.86854239 33.95391811 -41.72745557 27.9066546 -41.47265625 19.94140625 C-40.3106474 12.71006191 -36.88268445 6.0345445 -31.125 1.4375 C-20.76492646 -5.23942952 -11.02455135 -5.73661247 0 0 Z " fill="#FBD840" transform="translate(186,276)"/>
<path d="M0 0 C1.14129364 -0.00426498 2.28258728 -0.00852997 3.45846558 -0.01292419 C5.34580414 -0.01224442 5.34580414 -0.01224442 7.27127075 -0.0115509 C8.60496108 -0.0145419 9.93865055 -0.01794429 11.27233887 -0.02172852 C14.90047709 -0.03057941 18.52859174 -0.0329071 22.15673971 -0.0335443 C25.18359538 -0.03449274 28.21044553 -0.03817033 31.23729908 -0.0417164 C38.3781831 -0.04986531 45.5190545 -0.05230026 52.65994263 -0.05158997 C60.02965039 -0.05098924 67.39928495 -0.06153897 74.76897418 -0.07733363 C81.09259507 -0.09040414 87.41619202 -0.09577406 93.73982632 -0.09513456 C97.51820581 -0.0948794 101.29652027 -0.09774029 105.07488632 -0.10831261 C108.62892558 -0.11798524 112.18283755 -0.11807856 115.73688126 -0.11079597 C117.66363388 -0.10924965 119.59038646 -0.11760298 121.51712036 -0.12623596 C123.23752029 -0.11994423 123.23752029 -0.11994423 124.99267578 -0.11352539 C125.98930174 -0.11407016 126.9859277 -0.11461493 128.01275444 -0.1151762 C130.72485727 0.14339309 132.33592885 0.68226912 134.62332153 2.13371277 C136.36155354 4.5341284 136.65312147 5.7264469 136.43582153 8.69621277 C135.52413474 11.43127314 134.9020071 12.40011382 132.62332153 14.13371277 C130.0761261 14.51123619 130.0761261 14.51123619 126.96780396 14.5146637 C125.20114883 14.52735291 125.20114883 14.52735291 123.39880371 14.54029846 C122.10519928 14.53422577 120.81159485 14.52815308 119.47879028 14.52189636 C118.10391828 14.52596105 116.72904954 14.53130235 115.35418701 14.53782654 C111.61866391 14.55151835 107.883389 14.54619393 104.14786148 14.53668928 C100.24148125 14.52910229 96.3351225 14.53613562 92.42874146 14.54084778 C85.86823708 14.54630814 79.30783397 14.53910639 72.74734497 14.52482605 C65.15885014 14.50849894 57.57059709 14.51378725 49.98210812 14.53030527 C43.47078091 14.54391218 36.95952656 14.54584371 30.44818974 14.53798926 C26.5575012 14.53330834 22.66692638 14.53269931 18.77624512 14.54259872 C15.11870359 14.55125462 11.46147427 14.54527206 7.80396652 14.52791595 C5.81859519 14.52204638 3.83319749 14.5309784 1.84783936 14.54029846 C0.67006927 14.53183899 -0.50770081 14.52337952 -1.72116089 14.5146637 C-3.25978035 14.51296708 -3.25978035 14.51296708 -4.82948303 14.51123619 C-7.37667847 14.13371277 -7.37667847 14.13371277 -9.20671082 12.82865334 C-11.16991457 9.98454591 -10.73350005 7.46404757 -10.37667847 4.13371277 C-7.50436086 0.21691604 -4.64014647 0.0078084 0 0 Z " fill="#070101" transform="translate(193.37667846679688,90.86628723144531)"/>
<path d="M0 0 C1.56047813 -0.00786278 1.56047813 -0.00786278 3.15248108 -0.0158844 C5.34700632 -0.02229209 7.54156597 -0.02098389 9.73608398 -0.01245117 C13.08314521 -0.00394314 16.42849786 -0.03271853 19.77539062 -0.06445312 C21.91275991 -0.06606542 24.0501322 -0.06548707 26.1875 -0.0625 C27.67998512 -0.07935097 27.67998512 -0.07935097 29.20262146 -0.09654236 C35.39754742 -0.03479098 39.09346281 0.80424213 44.16015625 4.43359375 C49.18972326 10.24579361 49.79486585 16.92449654 51.16015625 24.43359375 C26.08015625 24.43359375 1.00015625 24.43359375 -24.83984375 24.43359375 C-22.56598483 11.92736968 -22.56598483 11.92736968 -20.08984375 7.93359375 C-19.620625 7.13953125 -19.15140625 6.34546875 -18.66796875 5.52734375 C-13.56341861 -0.31889317 -7.18202317 -0.02114696 0 0 Z " fill="#A5242F" transform="translate(242.83984375,363.56640625)"/>
<path d="M0 0 C4.69913349 3.32427784 7.69277066 7.56490742 8.7890625 13.265625 C8.99096665 20.32039371 7.52888872 25.93485941 2.7890625 31.265625 C-1.34643781 34.89602604 -6.16102997 36.14021122 -11.58203125 36.49609375 C-17.59207547 35.96921023 -22.513939 32.9626235 -26.7109375 28.765625 C-30.01414752 23.26027497 -31.0645012 18.65668324 -30.2109375 12.265625 C-28.05466762 5.41701781 -24.08556402 1.46473735 -17.8984375 -2.046875 C-11.41527427 -3.70535862 -5.86162402 -3.31613789 0 0 Z " fill="#040001" transform="translate(372.2109375,81.734375)"/>
<path d="M0 0 C4.22758328 2.48938272 6.84784799 6.31212096 9.265625 10.48828125 C10.76611603 16.79034359 10.59380385 22.54520432 7.33984375 28.25390625 C3.42674712 33.27448306 -1.800061 36.23833099 -8.046875 37.30078125 C-13.90290418 37.53794131 -18.45489751 35.57938151 -23.109375 32.11328125 C-27.35591059 27.71090949 -28.99948883 22.68276238 -29.296875 16.6328125 C-28.89565207 11.24137939 -27.08722588 7.00375719 -23.1640625 3.25390625 C-15.92025444 -2.35937675 -8.54065614 -3.54739852 0 0 Z " fill="#040001" transform="translate(160.109375,80.88671875)"/>
<path d="M0 0 C3.4375 0.8125 3.4375 0.8125 5.4375 3.8125 C5.95061287 7.99355104 5.94844398 10.06295372 3.54844666 13.58370972 C2.66355057 14.47115875 1.77865448 15.35860779 0.86694336 16.27294922 C0.38075531 16.76979721 -0.10543274 17.2666452 -0.60635376 17.77854919 C-2.21149505 19.40931342 -3.84065192 21.01334096 -5.47265625 22.6171875 C-6.60041698 23.74712546 -7.72706438 24.87817561 -8.85264587 26.01028442 C-11.21322362 28.3766629 -13.58570889 30.73020453 -15.9675293 33.07519531 C-19.01396059 36.07617418 -22.03049046 39.10525067 -25.03885746 42.14433098 C-27.36048228 44.48378657 -29.69646073 46.80846899 -32.03707695 49.12891006 C-33.15484693 50.24018007 -34.26835051 51.35575906 -35.37739754 52.47573471 C-36.93283912 54.04175465 -38.50637794 55.58702812 -40.08618164 57.12841797 C-40.97664688 58.01109344 -41.86711212 58.89376892 -42.78456116 59.80319214 C-46.13265576 62.22489873 -48.4621729 62.67674798 -52.5625 62.8125 C-55.60671586 60.86107958 -56.37711275 59.55404902 -57.25 56.0625 C-55.47899073 47.69045618 -45.43921594 40.54314783 -39.578125 34.6953125 C-38.63110037 33.74761248 -37.68422407 32.79976421 -36.73748779 31.85177612 C-34.76915443 29.88198043 -32.79905399 27.91397472 -30.82763672 25.94726562 C-28.30352546 23.42889028 -25.78398411 20.90599781 -23.26572037 18.38177681 C-20.85144734 15.96302569 -18.43337667 13.54808648 -16.015625 11.1328125 C-15.11249573 10.227659 -14.20936646 9.32250549 -13.27886963 8.3899231 C-12.44079773 7.55500336 -11.60272583 6.72008362 -10.73925781 5.85986328 C-10.0031427 5.12454376 -9.26702759 4.38922424 -8.50860596 3.63162231 C-5.46974952 0.79105162 -4.25946142 -0.22418218 0 0 Z " fill="#000506" transform="translate(336.5625,154.1875)"/>
<path d="M0 0 C2.20270021 2.05585353 2.89331909 3.33372813 3.36843872 6.30107117 C2.83686341 10.19502653 0.97883171 11.66319023 -1.77001953 14.43286133 C-2.27732101 14.9505307 -2.7846225 15.46820007 -3.30729675 16.0015564 C-4.98662184 17.70796967 -6.68368644 19.39534969 -8.3828125 21.08203125 C-9.55737341 22.26250027 -10.73126367 23.44363692 -11.9045105 24.62541199 C-14.3662765 27.09906212 -16.83711817 29.56318574 -19.31445312 32.02124023 C-22.48756025 35.17146804 -25.63517499 38.34584387 -28.77618599 41.52803516 C-31.19509409 43.97252501 -33.62792481 46.40277079 -36.06509018 48.82904625 C-37.23143002 49.99389939 -38.39319385 51.16335317 -39.55023575 52.3374424 C-41.17067054 53.97785091 -42.80910156 55.59788902 -44.45361328 57.21411133 C-45.84593674 58.60379875 -45.84593674 58.60379875 -47.26638794 60.02156067 C-50.50714958 62.36704721 -52.08419434 62.60282971 -56 62 C-58.4375 59.875 -58.4375 59.875 -60 57 C-59.80355129 51.65737999 -57.96462844 49.34755058 -54.23657227 45.65307617 C-53.74220673 45.15637421 -53.24784119 44.65967224 -52.73849487 44.1479187 C-51.10952029 42.51733566 -49.4634775 40.90525316 -47.81640625 39.29296875 C-46.67817592 38.16153061 -45.54097789 37.0290531 -44.4047699 35.89558411 C-42.02554444 33.52702131 -39.63855519 31.16669495 -37.24487305 28.81274414 C-34.17329052 25.79214393 -31.11481057 22.75871204 -28.06117344 19.71998119 C-25.1501387 16.82371839 -22.23390858 13.93271475 -19.31640625 11.04296875 C-18.75853487 10.49000814 -18.20066349 9.93704754 -17.62588692 9.36733055 C-16.05098897 7.80867612 -14.47258409 6.25367385 -12.89282227 4.69995117 C-11.99427017 3.81425949 -11.09571808 2.92856781 -10.16993713 2.01603699 C-6.55565386 -1.34190765 -4.73969505 -1.25747011 0 0 Z " fill="#000101" transform="translate(290,155)"/>
<path d="M0 0 C1.64198364 -0.00574036 1.64198364 -0.00574036 3.31713867 -0.01159668 C5.63038045 -0.01431736 7.94365292 -0.00694534 10.25683594 0.00976562 C13.79952522 0.0311716 17.34018636 0.00996774 20.8828125 -0.015625 C23.13021281 -0.01298175 25.37761187 -0.00785684 27.625 0 C28.68549561 -0.00809692 29.74599121 -0.01619385 30.83862305 -0.02453613 C38.14489265 0.06872145 38.14489265 0.06872145 41.4765625 2.37695312 C43.334461 5.37295027 43.46076547 7.07383415 42.8125 10.53125 C40.64099578 13.04718398 38.85648405 14.35984963 35.53881836 14.90454102 C32.68504579 15.06165136 29.85804655 15.08544749 27 15.0625 C25.43028442 15.06824036 25.43028442 15.06824036 23.82885742 15.07409668 C21.61994462 15.07681438 19.41099956 15.06946322 17.20214844 15.05273438 C13.82413881 15.03132377 10.4482561 15.05254197 7.0703125 15.078125 C4.92187031 15.0754817 2.77342945 15.07035668 0.625 15.0625 C-0.88767456 15.07464539 -0.88767456 15.07464539 -2.4309082 15.08703613 C-6.82960204 15.02831434 -9.47779999 14.94833116 -13.328125 12.68554688 C-15.1875 10.53125 -15.1875 10.53125 -15.75 7.53125 C-14.14291449 -1.03987273 -7.17081045 -0.05474941 0 0 Z " fill="#040001" transform="translate(242.1875,318.46875)"/>
<path d="M0 0 C1.64198364 -0.00574036 1.64198364 -0.00574036 3.31713867 -0.01159668 C5.63038045 -0.01431736 7.94365292 -0.00694534 10.25683594 0.00976562 C13.79952522 0.0311716 17.34018636 0.00996774 20.8828125 -0.015625 C23.13021281 -0.01298175 25.37761187 -0.00785684 27.625 0 C28.68549561 -0.00809692 29.74599121 -0.01619385 30.83862305 -0.02453613 C38.14489265 0.06872145 38.14489265 0.06872145 41.4765625 2.37695312 C43.334461 5.37295027 43.46076547 7.07383415 42.8125 10.53125 C40.64099578 13.04718398 38.85648405 14.35984963 35.53881836 14.90454102 C32.68504579 15.06165136 29.85804655 15.08544749 27 15.0625 C25.43028442 15.06824036 25.43028442 15.06824036 23.82885742 15.07409668 C21.61994462 15.07681438 19.41099956 15.06946322 17.20214844 15.05273438 C13.82413881 15.03132377 10.4482561 15.05254197 7.0703125 15.078125 C4.92187031 15.0754817 2.77342945 15.07035668 0.625 15.0625 C-0.88767456 15.07464539 -0.88767456 15.07464539 -2.4309082 15.08703613 C-6.82960204 15.02831434 -9.47779999 14.94833116 -13.328125 12.68554688 C-15.1875 10.53125 -15.1875 10.53125 -15.75 7.53125 C-14.14291449 -1.03987273 -7.17081045 -0.05474941 0 0 Z " fill="#050101" transform="translate(242.1875,291.46875)"/>
<path d="M0 0 C1.64198364 -0.00574036 1.64198364 -0.00574036 3.31713867 -0.01159668 C5.63038045 -0.01431736 7.94365292 -0.00694534 10.25683594 0.00976562 C13.79952522 0.0311716 17.34018636 0.00996774 20.8828125 -0.015625 C23.13021281 -0.01298175 25.37761187 -0.00785684 27.625 0 C28.68549561 -0.00809692 29.74599121 -0.01619385 30.83862305 -0.02453613 C38.14489265 0.06872145 38.14489265 0.06872145 41.4765625 2.37695312 C43.334461 5.37295027 43.46076547 7.07383415 42.8125 10.53125 C40.64099578 13.04718398 38.85648405 14.35984963 35.53881836 14.90454102 C32.68504579 15.06165136 29.85804655 15.08544749 27 15.0625 C25.43028442 15.06824036 25.43028442 15.06824036 23.82885742 15.07409668 C21.61994462 15.07681438 19.41099956 15.06946322 17.20214844 15.05273438 C13.82413881 15.03132377 10.4482561 15.05254197 7.0703125 15.078125 C4.92187031 15.0754817 2.77342945 15.07035668 0.625 15.0625 C-0.88767456 15.07464539 -0.88767456 15.07464539 -2.4309082 15.08703613 C-6.82960204 15.02831434 -9.47779999 14.94833116 -13.328125 12.68554688 C-15.1875 10.53125 -15.1875 10.53125 -15.75 7.53125 C-14.14291449 -1.03987273 -7.17081045 -0.05474941 0 0 Z " fill="#070101" transform="translate(242.1875,264.46875)"/>
<path d="M0 0 C4.30169173 1.40272556 4.30169173 1.40272556 5.875 3.9375 C6.41568562 7.56781776 6.33879841 9.25964079 4.25 12.3125 C1.16313568 14.42456506 -0.4532913 14.54945145 -4.125 13.9375 C-7.21384321 11.82408096 -7.99608765 10.62503254 -8.6875 6.9375 C-8.125 3.9375 -8.125 3.9375 -6 1.5 C-3.125 -0.0625 -3.125 -0.0625 0 0 Z " fill="#040001" transform="translate(311.125,24.0625)"/>
<path d="M0 0 C4.30169173 1.40272556 4.30169173 1.40272556 5.875 3.9375 C6.41568562 7.56781776 6.33879841 9.25964079 4.25 12.3125 C1.16313568 14.42456506 -0.4532913 14.54945145 -4.125 13.9375 C-7.21384321 11.82408096 -7.99608765 10.62503254 -8.6875 6.9375 C-8.125 3.9375 -8.125 3.9375 -6 1.5 C-3.125 -0.0625 -3.125 -0.0625 0 0 Z " fill="#040001" transform="translate(284.125,24.0625)"/>
<path d="M0 0 C4.30169173 1.40272556 4.30169173 1.40272556 5.875 3.9375 C6.41568562 7.56781776 6.33879841 9.25964079 4.25 12.3125 C1.16313568 14.42456506 -0.4532913 14.54945145 -4.125 13.9375 C-7.21384321 11.82408096 -7.99608765 10.62503254 -8.6875 6.9375 C-8.125 3.9375 -8.125 3.9375 -6 1.5 C-3.125 -0.0625 -3.125 -0.0625 0 0 Z " fill="#040001" transform="translate(257.125,24.0625)"/>
<path d="M0 0 C4.30169173 1.40272556 4.30169173 1.40272556 5.875 3.9375 C6.41568562 7.56781776 6.33879841 9.25964079 4.25 12.3125 C1.16313568 14.42456506 -0.4532913 14.54945145 -4.125 13.9375 C-7.21384321 11.82408096 -7.99608765 10.62503254 -8.6875 6.9375 C-8.125 3.9375 -8.125 3.9375 -6 1.5 C-3.125 -0.0625 -3.125 -0.0625 0 0 Z " fill="#040001" transform="translate(230.125,24.0625)"/>
<path d="M0 0 C4.30169173 1.40272556 4.30169173 1.40272556 5.875 3.9375 C6.41568562 7.56781776 6.33879841 9.25964079 4.25 12.3125 C1.16313568 14.42456506 -0.4532913 14.54945145 -4.125 13.9375 C-7.21384321 11.82408096 -7.99608765 10.62503254 -8.6875 6.9375 C-8.125 3.9375 -8.125 3.9375 -6 1.5 C-3.125 -0.0625 -3.125 -0.0625 0 0 Z " fill="#040001" transform="translate(203.125,24.0625)"/>
<path d="M0 0 C3.625 0.375 3.625 0.375 7 1 C8.32561852 7.38707103 8.32561852 7.38707103 6.9375 10 C3.99948754 11.51639353 2.09843192 10.92293717 -1 10 C-3 7 -3 7 -2.75 4.4375 C-2 2 -2 2 0 0 Z " fill="#A2232E" transform="translate(148,93)"/>
<path d="M0 0 C1.875 1.125 1.875 1.125 3 3 C2.875 6.0625 2.875 6.0625 2 9 C-1 11 -1 11 -3.5625 10.75 C-6 10 -6 10 -8 8 C-8.36487512 5.15397406 -8.40199375 3.6135694 -6.8125 1.1875 C-4.35092224 -0.42525784 -2.88934264 -0.4334014 0 0 Z " fill="#A1232E" transform="translate(364,93)"/>
</svg>
